<svg width="294" height="254" viewBox="0 0 294 254" fill="none" xmlns="http://www.w3.org/2000/svg">
<path d="M60.6078 87.2418L146.85 0.999996L233.091 87.2418L146.85 173.484L60.6078 87.2418Z" fill="#FACC15"/>
<path d="M160.118 186.752L226.457 120.412L292.797 186.752L226.457 253.091L160.118 186.752Z" fill="#FACC15"/>
<path d="M0.90195 186.752L67.2418 120.412L133.582 186.752L67.2418 253.091L0.90195 186.752Z" fill="#FACC15"/>
<path d="M60.6078 87.2418L146.85 0.999996L233.091 87.2418L146.85 173.484L60.6078 87.2418Z" stroke="#7D47FC" stroke-width="1.5" stroke-linecap="round" stroke-linejoin="round"/>
<path d="M160.118 186.752L226.457 120.412L292.797 186.752L226.457 253.091L160.118 186.752Z" stroke="#7D47FC" stroke-width="1.5" stroke-linecap="round" stroke-linejoin="round"/>
<path d="M0.90195 186.752L67.2418 120.412L133.582 186.752L67.2418 253.091L0.90195 186.752Z" stroke="#7D47FC" stroke-width="1.5" stroke-linecap="round" stroke-linejoin="round"/>
</svg>
